<svg width="32" height="32" viewBox="0 0 32 32" fill="none" xmlns="http://www.w3.org/2000/svg">
<rect x="12" y="12" width="2" height="2" fill="black"/>
<rect x="14" y="14" width="2" height="2" fill="black"/>
<rect x="16" y="16" width="2" height="2" fill="black"/>
<rect x="18" y="18" width="2" height="2" fill="black"/>
<rect x="20" y="20" width="2" height="2" fill="black"/>
<rect x="22" y="22" width="2" height="2" fill="black"/>
<rect x="24" y="24" width="2" height="2" fill="black"/>
<rect x="26" y="26" width="2" height="2" fill="black"/>
<rect x="28" y="28" width="2" height="2" fill="black"/>
<rect x="2" y="2" width="2" height="2" fill="black"/>
<rect x="6" y="6" width="2" height="2" fill="black"/>
<rect x="8" y="8" width="2" height="2" fill="black"/>
<rect x="10" y="10" width="2" height="2" fill="black"/>
<rect x="4" y="4" width="2" height="2" fill="black"/>
<rect width="2" height="2" transform="matrix(-1 0 0 1 20 12)" fill="black"/>
<rect width="2" height="2" transform="matrix(-1 0 0 1 18 14)" fill="black"/>
<rect width="2" height="2" transform="matrix(-1 0 0 1 16 16)" fill="black"/>
<rect width="2" height="2" transform="matrix(-1 0 0 1 14 18)" fill="black"/>
<rect width="2" height="2" transform="matrix(-1 0 0 1 12 20)" fill="black"/>
<rect width="2" height="2" transform="matrix(-1 0 0 1 10 22)" fill="black"/>
<rect width="2" height="2" transform="matrix(-1 0 0 1 8 24)" fill="black"/>
<rect width="2" height="2" transform="matrix(-1 0 0 1 6 26)" fill="black"/>
<rect width="2" height="2" transform="matrix(-1 0 0 1 4 28)" fill="black"/>
<rect width="2" height="2" transform="matrix(-1 0 0 1 30 2)" fill="black"/>
<rect width="2" height="2" transform="matrix(-1 0 0 1 26 6)" fill="black"/>
<rect width="2" height="2" transform="matrix(-1 0 0 1 24 8)" fill="black"/>
<rect width="2" height="2" transform="matrix(-1 0 0 1 22 10)" fill="black"/>
<rect width="2" height="2" transform="matrix(-1 0 0 1 28 4)" fill="black"/>
</svg>
